<svg xmlns="http://www.w3.org/2000/svg" viewBox="0 0 450 450"><defs><style>.cls-1{fill:none;}.cls-2{opacity:0.4;}.cls-13,.cls-3,.cls-5,.cls-6{fill:#a0f4d5;}.cls-4{fill:#d4cce8;opacity:0.31;}.cls-11,.cls-12,.cls-13,.cls-15,.cls-19,.cls-20,.cls-21,.cls-25,.cls-26,.cls-28,.cls-29,.cls-4,.cls-5,.cls-6,.cls-7{isolation:isolate;}.cls-5{opacity:0.47;}.cls-10,.cls-6{opacity:0.81;}.cls-12,.cls-16,.cls-21,.cls-26,.cls-7{fill:#464551;}.cls-7{opacity:0.58;}.cls-11,.cls-8{opacity:0.66;}.cls-11,.cls-25,.cls-28,.cls-29,.cls-9{fill:#fff;}.cls-12{opacity:0.14;}.cls-13,.cls-20{opacity:0.39;}.cls-14,.cls-20{fill:#a3a2a8;}.cls-15{fill:#ecf1f7;opacity:0.07;}.cls-17{fill:#e2fcf2;}.cls-18,.cls-19{fill:#70efc1;}.cls-19{opacity:0.74;}.cls-21{opacity:0.56;}.cls-22{fill:#d1d1d3;}.cls-23{opacity:0.28;}.cls-24{fill:#74747c;}.cls-25{opacity:0.76;}.cls-26{opacity:0.43;}.cls-27{fill:#11e497;}.cls-28{opacity:0.12;}.cls-29{opacity:0.21;}</style></defs><g id="Layer_2" data-name="Layer 2"><g id="Layer_1-2" data-name="Layer 1"><g id="Layer_2-2" data-name="Layer 2"><g id="OBJECTS"><rect class="cls-1" width="450" height="450"/><g class="cls-2"><path class="cls-3" d="M427.88,277.68a116.08,116.08,0,0,0-.52-19.64c-3.47-30.61-19.18-59.48-42.29-79.85-8.25-7.27-17.63-13.78-23-23.37-9.07-16.15-8.35-34.67-19.57-50.67a94.92,94.92,0,0,0-46.05-34.81c-55-19.07-132.08,12-125.14,78.28,0,.24.05.58.08,1a24.14,24.14,0,0,1-22.55,25.63c-.36,0-.73,0-1.09.05C97,175.52,53.27,214.67,43.92,264.25c-6,31.9,3.83,66.9,27.16,89.4,17.41,16.84,40.77,26.09,64.15,32.45,46.86,12.75,96.18,15.42,144.5,10.54,45.24-4.56,92.95-17.56,122.2-52.36C417.54,325.71,426.48,301.91,427.88,277.68Z"/></g><circle class="cls-4" cx="139.79" cy="79.22" r="8.17"/><path class="cls-5" d="M27.42,126.6A83.85,83.85,0,0,0,21.61,178c4.14,20.16,16.68,35.63,12.33,57.16-2.65,13.09-3.32,25.23-4.66,38.18-2.76,26.61,14.51,50,35.94,62.71C82.63,346.29,103,350.15,123,349.87c18-.24,36-3.57,53.45-8,16.82-4.31,33.26-10,50.89-8.2,14.66,1.48,27.91,7.79,41.56,12.48,32.6,11.28,72.09,12.87,101.9-4.3a86,86,0,0,0,40.25-93.66c-3.65-16.12-9.82-32.38-7.9-49.18,1.33-11.71,6.69-23,5.71-34.76-.65-7.8-4.09-15.12-8.29-21.73-15.34-24.12-41-40.27-68.19-49.17C306.81,85,280.44,78.9,253.82,80.92c-55,4.17-66.26-4.58-122.51-16.61-36.31-7.72-76.93,20-98.18,52A77.18,77.18,0,0,0,27.42,126.6Z"/><path class="cls-6" d="M65.29,151.39c-1.13,12.7,3.16,25.79-.42,38.37-4.29,15-16.7,26.33-21.76,41.12-7.47,21.84-7.11,46.32,2,67.61,4.38,10.26,10.77,19.8,19.49,26.39C78.06,335,95.68,337.27,112.26,336c24.67-1.92,50.71-12.6,75.51-9.68,13.69,1.6,17.87,16.42,24.94,26.19A81.93,81.93,0,0,0,243.64,378c22.17,10.64,48.78,11.65,71.44,2,24.2-10.31,45.28-35.47,43.9-63.93-.64-13.16-5.91-26.24-3.47-39.18,3.06-16.23,15.29-31,24.16-44.25a102.14,102.14,0,0,0,16.87-49.8v-.61A67.82,67.82,0,0,0,349.84,114L287.76,93.6c-63-20.71-125.93-20-183.85,10.38-12.53,6.58-32.91,26.17-37.14,39.7A36.74,36.74,0,0,0,65.29,151.39Z"/><circle class="cls-7" cx="70.77" cy="107.98" r="1.33"/><g class="cls-8"><path class="cls-9" d="M174.81,181.07l-7.08-.54a36.42,36.42,0,0,0-4.84-14.79l5.38-4.62a6.5,6.5,0,0,0-8.47-9.87l-5.38,4.62a36.37,36.37,0,0,0-13.88-7l.54-7.07a6.52,6.52,0,0,0-6-7h0a6.5,6.5,0,0,0-7,6v0l-.54,7.07a36.42,36.42,0,0,0-14.79,4.84l-4.61-5.38a6.51,6.51,0,0,0-9.88,8.47l4.62,5.38a36.51,36.51,0,0,0-7,13.88l-7.07-.54a6.52,6.52,0,0,0-7,6v0h0a6.5,6.5,0,0,0,5.94,7h.06l7.07.54a36.42,36.42,0,0,0,4.84,14.79l-5.38,4.62a6.5,6.5,0,0,0,8.47,9.87h0l5.39-4.62a36.12,36.12,0,0,0,13.87,7l-.54,7.07a6.52,6.52,0,0,0,6,7h0a6.52,6.52,0,0,0,7-6l.54-7.07a36.38,36.38,0,0,0,14.78-4.84l4.62,5.38a6.5,6.5,0,1,0,9.87-8.47h0l-4.62-5.38a36.23,36.23,0,0,0,7-13.88l7.08.54a6.52,6.52,0,0,0,7-6v0h0a6.52,6.52,0,0,0-6-7ZM129.3,210.69a26.5,26.5,0,1,1,28.44-24.41h0a26.49,26.49,0,0,1-28.43,24.4Z"/><path class="cls-9" d="M325.9,380.49a5.42,5.42,0,0,1-5.16-3.79l-1.27-4a25.94,25.94,0,0,1-9.72-.84l-1.94,3.74a5.4,5.4,0,0,1-7.29,2.31h0a5.32,5.32,0,0,1-2.67-3.17,5.39,5.39,0,0,1,.35-4.13l1.94-3.74a25.93,25.93,0,0,1-6.28-7.47l-4,1.27a5.42,5.42,0,1,1-3.58-10.23l.31-.1,4-1.27a25.74,25.74,0,0,1,.84-9.72l-3.74-1.94a5.42,5.42,0,0,1,5-9.62l3.74,1.94a25.79,25.79,0,0,1,7.47-6.28l-1.27-4a5.42,5.42,0,0,1,3.53-6.8,5.43,5.43,0,0,1,6.8,3.53l1.27,4a26.15,26.15,0,0,1,9.72.84l1.94-3.73a5.42,5.42,0,0,1,9.62,5L333.56,326a25.89,25.89,0,0,1,6.28,7.46l4-1.27a5.42,5.42,0,1,1,3.27,10.34l-4,1.27a26.15,26.15,0,0,1-.84,9.72l3.73,1.94a5.42,5.42,0,1,1-5,9.62l-3.74-2a26.2,26.2,0,0,1-7.46,6.28l1.27,4a5.44,5.44,0,0,1-5.18,7.06Zm-5.18-9.74,1.72,5.42a3.64,3.64,0,1,0,6.94-2.2h0l-1.71-5.42.65-.35a24.38,24.38,0,0,0,8-6.73l.45-.59,5.05,2.62a3.64,3.64,0,1,0,3.35-6.47l-5-2.62.22-.7a24.5,24.5,0,0,0,.9-10.42l-.1-.74,5.42-1.72a3.64,3.64,0,0,0,2.38-4.55v0a3.63,3.63,0,0,0-4.57-2.37h0L339,335.6l-.34-.66a24.41,24.41,0,0,0-6.74-8l-.59-.45,2.62-5a3.64,3.64,0,0,0-6.36-3.54,1.74,1.74,0,0,0-.1.19l-2.62,5-.71-.22a24.5,24.5,0,0,0-10.42-.9l-.74.1-1.71-5.42a3.64,3.64,0,0,0-7,2.2h0l1.72,5.42-.66.34a24.41,24.41,0,0,0-8,6.74L297,332l-5-2.62a3.64,3.64,0,0,0-4.91,1.55h0a3.62,3.62,0,0,0,1.51,4.89l0,0,5,2.62-.22.71a24.34,24.34,0,0,0-.89,10.42l.09.74L287.15,352a3.64,3.64,0,1,0,2.2,7h0l5.42-1.72.35.66a24.38,24.38,0,0,0,6.73,8l.59.45-2.62,5a3.63,3.63,0,0,0-.24,2.78,3.59,3.59,0,0,0,1.8,2.13,3.64,3.64,0,0,0,4.91-1.55h0l2.62-5.05.71.23a24.29,24.29,0,0,0,10.41.89Zm-3.9-5a19.48,19.48,0,1,1,5.86-.92,19.13,19.13,0,0,1-5.86,1Zm0-36.94a17.57,17.57,0,1,0,8.08,2,17.57,17.57,0,0,0-8.08-2Z"/><path class="cls-9" d="M372.57,347.32a7,7,0,0,1-7-7,6.46,6.46,0,0,1,.07-1l.85-5.84a34.4,34.4,0,0,1-11.59-6.9l-4.74,3.57A7,7,0,0,1,341.84,319l4.73-3.53a34.76,34.76,0,0,1-3.32-13.08l-5.84-.85a7,7,0,1,1,2-13.81l5.84.85a34.56,34.56,0,0,1,6.9-11.59l-3.53-4.73a7,7,0,1,1,10.5-9.26,7.43,7.43,0,0,1,.68.91l3.53,4.73a34.75,34.75,0,0,1,13.08-3.31l.85-5.85a7,7,0,0,1,13.81,2l-.85,5.84a35.1,35.1,0,0,1,11.59,6.9l4.73-3.53a7,7,0,0,1,9.18,10.57,6.18,6.18,0,0,1-.83.62l-4.73,3.53a34.7,34.7,0,0,1,3.31,13.07l5.85.85a7,7,0,0,1-2,13.81l-5.84-.85a34.83,34.83,0,0,1-6.9,11.59l3.53,4.73a7,7,0,1,1-11.19,8.35l-3.54-4.78a34.71,34.71,0,0,1-13.07,3.32l-.85,5.84A7,7,0,0,1,372.57,347.32Zm-17.53-23,.54.51a33.13,33.13,0,0,0,12.19,7.26l.71.23-1.06,7.31a5.2,5.2,0,0,0,10.27,1.66c0-.05,0-.11,0-.16l1.06-7.31h.75a32.93,32.93,0,0,0,13.75-3.49l.66-.33,4.42,5.92a5.2,5.2,0,1,0,8.5-6c-.05-.08-.11-.15-.17-.23l-4.41-5.92.51-.54A33,33,0,0,0,410,311l.24-.71,7.31,1.06A5.2,5.2,0,0,0,419,301L411.73,300v-.75a32.93,32.93,0,0,0-3.49-13.75l-.33-.66,5.91-4.42a5.19,5.19,0,0,0,1.08-7.26,5.19,5.19,0,0,0-7.3-1.05h0l-5.91,4.41-.55-.51A32.74,32.74,0,0,0,389,268.72l-.7-.24,1.06-7.31a5.2,5.2,0,0,0-10.3-1.49L378,267h-.74a32.93,32.93,0,0,0-13.75,3.49l-.67.33-4.41-5.92a5.21,5.21,0,0,0-8.34,6.23l4.42,5.91-.51.55a33,33,0,0,0-7.26,12.19l-.23.7-7.31-1.06a5.2,5.2,0,0,0-1.5,10.3h0l7.31,1.06v.74a32.89,32.89,0,0,0,3.49,13.75l.33.67-5.92,4.41a5.2,5.2,0,1,0,6.22,8.34Zm23.36,1.79A25.67,25.67,0,1,1,393.74,321h0a25.54,25.54,0,0,1-15.34,5.05Zm-.08-49.62a23.93,23.93,0,1,0,14.36,43.1h0a23.92,23.92,0,0,0-10.87-42.84,25.41,25.41,0,0,0-3.49-.3Z"/></g><g class="cls-10"><path class="cls-9" d="M257.67,350.9H239.42a.89.89,0,1,1,0-1.78h18.25a.89.89,0,1,1,0,1.78Z"/><path class="cls-9" d="M257.67,369.87H239.42a.89.89,0,1,1,0-1.78h18.25a.89.89,0,1,1,0,1.78Z"/><path class="cls-9" d="M271.45,389H158.71a2.41,2.41,0,0,1-2.41-2.41h0V328.15a2.41,2.41,0,0,1,2.41-2.41H271.45a2.41,2.41,0,0,1,2.41,2.41h0v58.51A2.4,2.4,0,0,1,271.45,389ZM158.71,327.48a.63.63,0,0,0-.63.63h0v58.51a.64.64,0,0,0,.63.64H271.45a.64.64,0,0,0,.63-.64V328.15a.63.63,0,0,0-.63-.63h0Z"/><path class="cls-11" d="M271.45,389H158.71a2.41,2.41,0,0,1-2.41-2.41h0V328.15a2.41,2.41,0,0,1,2.41-2.41H271.45a2.41,2.41,0,0,1,2.41,2.41h0v58.51A2.4,2.4,0,0,1,271.45,389ZM158.71,327.48a.63.63,0,0,0-.63.63h0v58.51a.64.64,0,0,0,.63.64H271.45a.64.64,0,0,0,.63-.64V328.15a.63.63,0,0,0-.63-.63h0Z"/><path class="cls-9" d="M257.67,341.69h-87a.89.89,0,0,1,0-1.78h87a.89.89,0,0,1,0,1.78Z"/><path class="cls-9" d="M257.67,360.15h-87a.89.89,0,0,1-.19-1.77h87.19a.89.89,0,1,1,.19,1.77A.61.61,0,0,1,257.67,360.15Z"/><path class="cls-9" d="M217.58,350.9h-46.9a.89.89,0,0,1,0-1.78h46.9a.89.89,0,1,1,0,1.78Z"/><path class="cls-9" d="M217.58,369.87h-46.9a.89.89,0,0,1,0-1.78h46.9a.89.89,0,1,1,0,1.78Z"/><path class="cls-9" d="M202.31,378.66H170.68a.89.89,0,1,1,0-1.78h31.63a.89.89,0,0,1,0,1.78Z"/></g><g class="cls-10"><path class="cls-9" d="M83,294H62.5a.89.89,0,0,1,0-1.78H83A.89.89,0,1,1,83,294Z"/><path class="cls-9" d="M83,272.67H62.5a.89.89,0,1,1-.19-1.77H83a.89.89,0,0,1,.79,1A.87.87,0,0,1,83,272.67Z"/><path class="cls-9" d="M173.91,320.32H46.82a2.41,2.41,0,0,1-2.41-2.41h0V251.77a2.41,2.41,0,0,1,2.41-2.41H173.91a2.41,2.41,0,0,1,2.41,2.41h0v66.14a2.41,2.41,0,0,1-2.41,2.41ZM46.82,251.15a.64.64,0,0,0-.63.64v66.14a.63.63,0,0,0,.63.63H173.91a.63.63,0,0,0,.63-.63h0V251.77a.64.64,0,0,0-.63-.64Z"/><path class="cls-11" d="M173.91,320.32H46.82a2.41,2.41,0,0,1-2.41-2.41h0V251.77a2.41,2.41,0,0,1,2.41-2.41H173.91a2.41,2.41,0,0,1,2.41,2.41h0v66.14a2.41,2.41,0,0,1-2.41,2.41ZM46.82,251.15a.64.64,0,0,0-.63.64v66.14a.63.63,0,0,0,.63.63H173.91a.63.63,0,0,0,.63-.63h0V251.77a.64.64,0,0,0-.63-.64Z"/><path class="cls-9" d="M160.27,304.35H62.5a.89.89,0,1,1,0-1.78h97.77a.89.89,0,0,1,0,1.78Z"/><path class="cls-9" d="M160.27,283.65H62.5a.89.89,0,0,1,0-1.78h97.77a.89.89,0,0,1,0,1.78Z"/><path class="cls-9" d="M160.27,294H107.56a.89.89,0,0,1,0-1.78h52.71a.89.89,0,0,1,0,1.78Z"/><path class="cls-9" d="M160.27,272.67H107.56a.89.89,0,0,1-.19-1.77h52.9a.89.89,0,0,1,.79,1,.87.87,0,0,1-.79.79Z"/><path class="cls-9" d="M160.27,262.79H124.72a.89.89,0,0,1-.19-1.77h35.74a.89.89,0,0,1,.79,1A.87.87,0,0,1,160.27,262.79Z"/></g><rect class="cls-12" x="234.8" y="201.61" width="157.2" height="116.33" rx="1.65" transform="translate(-69.88 396.9) rotate(-59.34)"/><rect class="cls-3" x="232.28" y="196.32" width="157.2" height="116.33" rx="1.65" transform="translate(-66.56 392.13) rotate(-59.34)"/><rect class="cls-12" x="227.4" y="203.57" width="157.2" height="116.33" rx="1.65" transform="translate(-6.86 515.24) rotate(-79.56)"/><rect class="cls-9" x="224.12" y="200.3" width="156.63" height="115.91" transform="translate(-6.2 509.07) rotate(-79.59)"/><rect class="cls-13" x="225.02" y="199.32" width="157.2" height="116.33" rx="1.65" transform="translate(-4.62 509.42) rotate(-79.56)"/><path class="cls-9" d="M357.77,209h-.16l-27.83-5.13a.88.88,0,0,1,.32-1.74h0l27.83,5.13a.88.88,0,0,1,.68,1.06.88.88,0,0,1-.84.7Z"/><path class="cls-9" d="M356.13,217.85H356l-27.83-5.13a.89.89,0,0,1,.15-1.77l.18,0,27.82,5.13a.88.88,0,0,1,.68,1.06.88.88,0,0,1-.84.7Z"/><path class="cls-9" d="M354.35,227.51h-.16l-27.83-5.13a.87.87,0,1,1,.29-1.71l27.83,5.13a.88.88,0,0,1,.68,1.06.88.88,0,0,1-.84.7Z"/><rect class="cls-12" x="264.63" y="177.91" width="55.7" height="52.04" rx="1.78" transform="translate(38.93 454.62) rotate(-79.56)"/><rect class="cls-14" x="265.14" y="177.64" width="52.92" height="49.78" rx="1.78" transform="translate(39.59 452.6) rotate(-79.56)"/><path class="cls-15" d="M319.72,187.36l-49-9,.85-4.63a1.74,1.74,0,0,1,2-1.39l45.61,8.41a1.68,1.68,0,0,1,1.34,1.94Z"/><path class="cls-16" d="M284.47,202.48a5.33,5.33,0,0,1-1.05-.1l-.68-.12a6.66,6.66,0,0,1-5.32-7.74l1.71-9.27a1.33,1.33,0,0,1,2.62.48h0L280,195a4,4,0,0,0,3.19,4.62l.67.13a3.09,3.09,0,0,0,3.6-2.48h0l4.33-23.48a3.19,3.19,0,0,0-2.56-3.71l-1.16-.21a3.38,3.38,0,0,0-3.94,2.71h0l-.1.58a1.34,1.34,0,0,1-2.63-.48l.11-.58a6.07,6.07,0,0,1,7.05-4.85l1.16.21a5.86,5.86,0,0,1,4.69,6.82l-4.33,23.48A5.76,5.76,0,0,1,284.47,202.48Z"/><path class="cls-9" d="M289.09,182.76H289l-17.76-3.27a.46.46,0,0,1-.36-.52.43.43,0,0,1,.51-.35h0l17.76,3.27a.44.44,0,1,1-.08.88Z"/><path class="cls-9" d="M343.41,274.59h-.16l-85-15.68a.89.89,0,0,1,.32-1.75l85,15.68a.88.88,0,0,1,.68,1.06.88.88,0,0,1-.84.7Z"/><path class="cls-9" d="M337.33,307.57h-.16l-85-15.68a.89.89,0,0,1,.32-1.75l85,15.68a.88.88,0,0,1,.68,1.06.88.88,0,0,1-.84.7Z"/><path class="cls-9" d="M295.54,282.82h-.17l-40.19-7.41a.89.89,0,0,1,.32-1.75l40.2,7.41a.89.89,0,0,1-.16,1.77Z"/><path class="cls-9" d="M301.07,252.77h-.16l-40.19-7.4a.89.89,0,1,1,.26-1.76H261L301.23,251a.88.88,0,0,1,.72,1A.9.9,0,0,1,301.07,252.77Z"/><path class="cls-9" d="M340.39,291h-.16l-38.3-7.06a.89.89,0,1,1,.33-1.75l38.29,7a.88.88,0,0,1,.68,1.06.88.88,0,0,1-.84.7Z"/><rect class="cls-17" x="281.17" y="94.56" width="53.18" height="21.73" rx="2.96"/><rect class="cls-3" x="297.92" y="110.54" width="72.03" height="29.43" rx="2.96"/><rect class="cls-18" x="311.51" y="133.75" width="81.24" height="30.47" rx="4.02"/><rect class="cls-19" x="311.51" y="133.75" width="81.24" height="30.47" rx="4.02"/><path class="cls-17" d="M367,152.55a3.53,3.53,0,1,1,3.53-3.53h0A3.53,3.53,0,0,1,367,152.55Zm0-6.17a2.64,2.64,0,1,0,2.64,2.64,2.64,2.64,0,0,0-2.64-2.64Z"/><path class="cls-17" d="M352.4,152.55a3.53,3.53,0,1,1,3.53-3.53h0A3.53,3.53,0,0,1,352.4,152.55Zm0-6.17A2.64,2.64,0,1,0,355,149a2.64,2.64,0,0,0-2.64-2.64Z"/><path class="cls-17" d="M338.82,152.55a3.53,3.53,0,1,1,3.53-3.53h0A3.54,3.54,0,0,1,338.82,152.55Zm0-6.17a2.64,2.64,0,1,0,2.64,2.64A2.64,2.64,0,0,0,338.82,146.38Z"/><path class="cls-9" d="M137.45,96.69H250.88a4.15,4.15,0,0,1,4.12,4.13V267.89a14.28,14.28,0,0,1-14.26,14.26H162a30.42,30.42,0,0,1-30.41-30.41h0V102.56A5.87,5.87,0,0,1,137.45,96.69Z"/><path class="cls-20" d="M133,96.69H252.8A2.23,2.23,0,0,1,255,98.9V268.55a13.62,13.62,0,0,1-13.59,13.6H159.28a27.71,27.71,0,0,1-27.7-27.71V98.15A1.43,1.43,0,0,1,133,96.69Z"/><path class="cls-21" d="M143.52,96.69H253.26A1.76,1.76,0,0,1,255,98.44V269a13.14,13.14,0,0,1-13.13,13.13H169.79a27.25,27.25,0,0,1-27.25-27.24V97.67A1,1,0,0,1,143.52,96.69Z"/><path class="cls-22" d="M159.77,282.15h99.14a20.66,20.66,0,0,0,20.66-20.66h0v-7.84H179.31v7.85A20.66,20.66,0,0,1,159.77,282.15Z"/><g class="cls-23"><path class="cls-24" d="M172.91,282.15h88.27c10.16,0,18.39-9.25,18.39-20.66v-7.84H190.31v7.85C190.31,272.53,182.61,281.55,172.91,282.15Z"/></g><path class="cls-9" d="M232.57,232.27H164.84a.89.89,0,0,1,0-1.78h67.73a.89.89,0,0,1,0,1.78Z"/><path class="cls-9" d="M234,202.26H163.57a.89.89,0,1,1,0-1.78H234a.89.89,0,1,1,0,1.78Z"/><path class="cls-9" d="M198.7,217.25h-36a.89.89,0,1,1,0-1.78h36a.89.89,0,0,1,0,1.78Z"/><path class="cls-9" d="M196,217.25H165.45a.89.89,0,1,1,0-1.78H196a.89.89,0,1,1,0,1.78Z"/><path class="cls-9" d="M210.41,170.15H164.06a.86.86,0,0,1-.84-.88h0a.87.87,0,0,1,.84-.89h46.35a.87.87,0,0,1,.85.89h0a.86.86,0,0,1-.84.88Z"/><path class="cls-9" d="M231.9,170.15H217.78a.86.86,0,0,1-.84-.88h0a.87.87,0,0,1,.84-.89H231.9a.87.87,0,0,1,.85.89h0a.86.86,0,0,1-.84.88Z"/><path class="cls-9" d="M234,185.15H183.8a.89.89,0,0,1,0-1.78H234a.89.89,0,0,1,0,1.78Z"/><path class="cls-9" d="M178.84,185.15H163.57a.89.89,0,0,1,0-1.78h15.27a.89.89,0,0,1,0,1.78Z"/><path class="cls-9" d="M232.57,157.47H164.84a.89.89,0,1,1,0-1.78h67.73a.89.89,0,1,1,0,1.78Z"/><path class="cls-9" d="M232.57,127.45H164.84a.89.89,0,0,1-.79-1,.87.87,0,0,1,.79-.79h67.73a.89.89,0,0,1,.79,1A.87.87,0,0,1,232.57,127.45Z"/><path class="cls-9" d="M189.7,142.45H164.06a.89.89,0,1,1,0-1.78H189.7a.89.89,0,1,1,0,1.78Z"/><path class="cls-9" d="M232.05,142.45H201.52a.89.89,0,1,1,0-1.78h30.53a.89.89,0,1,1,0,1.78Z"/><path class="cls-25" d="M247.75,210.56A3.55,3.55,0,0,1,244.2,207h0a51.5,51.5,0,0,1,51.45-51.46,3.56,3.56,0,0,1,.38,7.11h-.38A44.39,44.39,0,0,0,251.31,207,3.57,3.57,0,0,1,247.75,210.56Z"/><path class="cls-7" d="M291.82,264.54a58,58,0,1,1,58-58A58,58,0,0,1,291.82,264.54Zm0-112.49a54.47,54.47,0,1,0,54.47,54.47A54.47,54.47,0,0,0,291.82,152.05Z"/><circle class="cls-1" cx="291.82" cy="206.52" r="56.24"/><path class="cls-24" d="M343.52,246.82a1.44,1.44,0,0,1,.27-.22,65.78,65.78,0,1,0-12,12l7.59-7.59Zm-51.7,15.94a56.24,56.24,0,1,1,56.25-56.24,56.24,56.24,0,0,1-56.25,56.24Z"/><path class="cls-24" d="M291.82,273a66.52,66.52,0,1,1,66.53-66.52,65.82,65.82,0,0,1-13.86,40.63l-.17.17-.17.13L332.3,259.28A65.88,65.88,0,0,1,291.82,273Zm0-131.26a64.74,64.74,0,1,0,0,129.48,64.08,64.08,0,0,0,39.35-13.35l11.72-11.76.27-.23a64.13,64.13,0,0,0,13.41-39.44A64.83,64.83,0,0,0,291.82,141.78Zm0,121.87A57.13,57.13,0,1,1,349,206.52,57.13,57.13,0,0,1,291.82,263.65Zm0-112.48a55.35,55.35,0,1,0,55.36,55.35,55.35,55.35,0,0,0-55.36-55.35Z"/><path class="cls-24" d="M341.9,257.08l-2.55-2.55a2.5,2.5,0,0,1,0-3.54h0l-7.59,7.59-.12.12a2.51,2.51,0,0,0,0,3.55h0l3.09,3.09A59.33,59.33,0,0,1,341.9,257.08Z"/><path class="cls-24" d="M339.35,251a2.5,2.5,0,0,0,0,3.54h0l2.55,2.55a68.66,68.66,0,0,1,8.13-7.3l-3-3a2.5,2.5,0,0,0-3.28-.22,1.44,1.44,0,0,0-.27.22Z"/><path class="cls-26" d="M339.35,251a2.5,2.5,0,0,0,0,3.54h0l2.55,2.55a68.66,68.66,0,0,1,8.13-7.3l-3-3a2.5,2.5,0,0,0-3.28-.22,1.44,1.44,0,0,0-.27.22Z"/><path class="cls-24" d="M397.65,296l-46.22-46.72c-.17-.17-.68,0-1.4.55a68.66,68.66,0,0,0-8.13,7.3,59.33,59.33,0,0,0-7.17,8.26c-.34.56-.46.94-.32,1.09l46.22,46.72a12,12,0,0,0,17,0l0,0A12.26,12.26,0,0,0,397.65,296Z"/><path class="cls-12" d="M397.65,296l-46.22-46.72c-.63-.63-5.89,4.09-10.41,8.75-3.85,4,51.93,59.92,56.63,55.17h0A12.27,12.27,0,0,0,397.65,296Z"/><path class="cls-27" d="M229.14,271.15H153.52a9.58,9.58,0,0,1-9.58-9.58h0v-6.29a9.62,9.62,0,0,0-9.62-9.62H99.39a9.62,9.62,0,0,0-9.62,9.62v99.87a9,9,0,0,0,9,9H229.14a9,9,0,0,0,9-9v-75A9,9,0,0,0,229.14,271.15Z"/><path class="cls-27" d="M220.81,271.15H145.19a9.59,9.59,0,0,1-9.59-9.59v-6.28a9.62,9.62,0,0,0-9.61-9.62H91.06a9.62,9.62,0,0,0-9.62,9.62v99.87a9,9,0,0,0,9,9H220.81a9,9,0,0,0,9-9v-75A9,9,0,0,0,220.81,271.15Z"/><path class="cls-28" d="M220.81,271.15H145.19a9.58,9.58,0,0,1-9.59-9.57h0v-6.29a9.62,9.62,0,0,0-9.61-9.62H91.06a9.62,9.62,0,0,0-9.62,9.62v99.87a9,9,0,0,0,9,9H220.81a9,9,0,0,0,9-9v-75A9,9,0,0,0,220.81,271.15Z"/><path class="cls-28" d="M201.63,271.15H136.41c-4.56,0-8.26-4.29-8.26-9.58v-6.29c0-5.31-3.71-9.62-8.3-9.62H89.73c-4.58,0-8.29,4.31-8.29,9.62v99.87c0,5,3.46,9,7.72,9H201.63c4.26,0,7.72-4,7.72-9v-75C209.35,275.15,205.89,271.15,201.63,271.15Z"/><path class="cls-9" d="M88.43,281.15a.89.89,0,0,1-.89-.89h0V258.43a6.13,6.13,0,0,1,6.12-6.12H119.4a.89.89,0,1,1,0,1.78H93.66a4.36,4.36,0,0,0-4.35,4.34v21.81a.88.88,0,0,1-.85.91Z"/><circle class="cls-29" cx="291.82" cy="206.52" r="56.24" transform="translate(-60.56 266.84) rotate(-45)"/></g></g></g></g></svg>